<svg width="700" height="240" xmlns="http://www.w3.org/2000/svg" aria-label="风险热力图">
  <defs>
    <style>
      .header-text { font-family: Arial, sans-serif; font-size: 14px; font-weight: bold; }
      .label-text { font-family: Arial, sans-serif; font-size: 14px; }
      .count-text { font-family: Arial, sans-serif; font-size: 15px; font-weight: bold; }
      .legend-text { font-family: Arial, sans-serif; font-size: 12px; font-weight: bold; }
      .legend-item { font-family: Arial, sans-serif; font-size: 12px; }
      .cell { stroke: #ddd; stroke-width: 1; }
    </style>
  </defs><rect width="700" height="240" fill="white" stroke="#ddd" stroke-width="1"/><text x="50" y="20" text-anchor="middle" class="header-text">系统/严重度</text><text x="160" y="20" text-anchor="middle" class="header-text">性能问题</text><text x="280" y="20" text-anchor="middle" class="header-text">支付系统</text><text x="400" y="20" text-anchor="middle" class="header-text">认证授权</text><text x="520" y="20" text-anchor="middle" class="header-text">数据安全</text><text x="640" y="20" text-anchor="middle" class="header-text">其他</text><text x="50" y="55" text-anchor="middle" class="label-text">严重</text><text x="50" y="95" text-anchor="middle" class="label-text">高</text><text x="50" y="135" text-anchor="middle" class="label-text">中</text><text x="50" y="175" text-anchor="middle" class="label-text">低</text><rect x="100" y="30" width="120" height="40" fill="#f5f5f5" class="cell"/><rect x="100" y="70" width="120" height="40" fill="#f5f5f5" class="cell"/><rect x="100" y="110" width="120" height="40" fill="#f5f5f5" class="cell"/><rect x="100" y="150" width="120" height="40" fill="#2d7230" class="cell"/><text x="160" y="175" text-anchor="middle" class="count-text" fill="#ffffff">1</text><rect x="220" y="30" width="120" height="40" fill="#a92626" class="cell"/><text x="280" y="55" text-anchor="middle" class="count-text" fill="#ffffff">1</text><rect x="220" y="70" width="120" height="40" fill="#c46300" class="cell"/><text x="280" y="95" text-anchor="middle" class="count-text" fill="#ffffff">1</text><rect x="220" y="110" width="120" height="40" fill="#f5f5f5" class="cell"/><rect x="220" y="150" width="120" height="40" fill="#f5f5f5" class="cell"/><rect x="340" y="30" width="120" height="40" fill="#f5f5f5" class="cell"/><rect x="340" y="70" width="120" height="40" fill="#f57c00" class="cell"/><text x="400" y="95" text-anchor="middle" class="count-text" fill="#ffffff">2</text><rect x="340" y="110" width="120" height="40" fill="#f5f5f5" class="cell"/><rect x="340" y="150" width="120" height="40" fill="#f5f5f5" class="cell"/><rect x="460" y="30" width="120" height="40" fill="#f5f5f5" class="cell"/><rect x="460" y="70" width="120" height="40" fill="#f5f5f5" class="cell"/><rect x="460" y="110" width="120" height="40" fill="#c99a24" class="cell"/><text x="520" y="135" text-anchor="middle" class="count-text" fill="#ffffff">1</text><rect x="460" y="150" width="120" height="40" fill="#f5f5f5" class="cell"/><rect x="580" y="30" width="120" height="40" fill="#f5f5f5" class="cell"/><rect x="580" y="70" width="120" height="40" fill="#c46300" class="cell"/><text x="640" y="95" text-anchor="middle" class="count-text" fill="#ffffff">1</text><rect x="580" y="110" width="120" height="40" fill="#c99a24" class="cell"/><text x="640" y="135" text-anchor="middle" class="count-text" fill="#ffffff">1</text><rect x="580" y="150" width="120" height="40" fill="#f5f5f5" class="cell"/><text x="0" y="210" class="legend-text">图例:</text><rect x="50" y="200" width="15" height="15" fill="#d32f2f" class="cell"/><text x="70" y="210" class="legend-item">严重</text><rect x="130" y="200" width="15" height="15" fill="#f57c00" class="cell"/><text x="150" y="210" class="legend-item">高</text><rect x="210" y="200" width="15" height="15" fill="#fbc02d" class="cell"/><text x="230" y="210" class="legend-item">中</text><rect x="290" y="200" width="15" height="15" fill="#388e3c" class="cell"/><text x="310" y="210" class="legend-item">低</text><text x="600" y="235" class="legend-item" font-size="10">更新: 2025-10-03</text></svg>